<svg xmlns="http://www.w3.org/2000/svg" width="500" height="500" viewBox="0 0 1000 1000" overflow="hidden">
  <defs>
	<linearGradient id="megaGradient" gradientUnits="userSpaceOnUse" x1="256" y1="650" x2="256" y2="1570">
		<stop  offset="0" style="stop-color:#EA8CC6"/>
		<stop  offset="0.22" style="stop-color:#229DDE"/>
		<stop  offset="0.5" style="stop-color:#00A388"/>
		<stop  offset="0.78" style="stop-color:#8DC63F"/>
		<stop  offset="1" style="stop-color:#FFF329"/>
	</linearGradient>
  </defs>

  <g transform="translate(-1731.5 -611)">
    <path d="M2189.72 1287.47 2200.98 1302.92C2232.97 1351.02 2242.58 1381.01 2252.44 1445.14 2303 1427.12 2353.47 1399.79 2392.01 1369.39L2403.18 1359.18 2365.94 1349.86C2324.17 1338.31 2280.34 1323.99 2237.09 1307.28ZM1974.62 1027.3 1974.86 1035.42C1980.17 1060.98 1991.14 1081.6 2006 1100.67L2023.07 1119.69 2034.66 1126.07C2153.05 1187.98 2298.74 1245.8 2430.66 1285.25L2457.16 1292.69 2470.69 1264.92 2478.93 1237.5 2467.31 1233.88C2331.24 1189.89 2122.4 1101.97 1996.3 1038.46ZM2032.79 887.962 2021.47 899.327C2015.27 906.16 2008.9 913.941 2002.91 922.804L1994.73 937.911 2002.58 942.994C2097.04 1001.84 2269.74 1083.37 2431.79 1134.04L2475.53 1146.4 2466.87 1127.66C2455.46 1108 2441.51 1091.04 2431.79 1080.37 2429.49 1077.84 2425.76 1074.07 2420.91 1069.31L2420.46 1068.87 2407.79 1064.3C2306.39 1026.25 2116.95 937.661 2036.77 890.414ZM2211.22 776.754C2194.46 781.703 2163.03 796.688 2130.6 815.44L2100.4 834.549 2134.64 855.105C2159.06 868.989 2183.95 882.304 2209.06 894.681L2279.83 926.388 2266.32 909.584C2229.56 858.981 2227.94 838.401 2211.22 776.754ZM2281.57 657.502C2279.68 737.942 2283.72 786.391 2324 854.134 2364.29 921.878 2477.64 1004.78 2523.28 1063.96 2565.33 1118.49 2583.26 1186.3 2579.71 1222.52 2569.95 1322.17 2541.37 1352.22 2471.34 1409.24 2401.3 1466.26 2278.77 1524.62 2159.49 1564.63 2166 1521.13 2182.03 1438.63 2136.04 1370.14 2059.62 1256.34 1981.3 1217.73 1939.06 1155.54 1896.82 1093.34 1879.08 1033.2 1882.62 996.982 1892.39 897.333 1955.12 838.712 1991 810.259 2094.93 724.779 2206.38 681.746 2281.57 657.502Z" 
    stroke="url(#megaGradient)" stroke-width="12" stroke-linejoin="round" stroke-linecap="round" fill="url(#megaGradient)" fill-rule="evenodd"/>
  </g>
</svg>