<?xml version="1.0" encoding="UTF-8"?>
<svg id="Calque_1" xmlns="http://www.w3.org/2000/svg" version="1.1" viewBox="0 0 1024 1024">
  <!-- Generator: Adobe Illustrator 29.8.1, SVG Export Plug-In . SVG Version: 2.1.1 Build 2)  -->
  <defs>
    <style>
      .st0 {
        fill: #000;
      }
    </style>
  </defs>
  <g>
    <path class="st0" d="M179.74,339.24c17.79-2.85,41.24,18.67,55.15,29.36,27.06,20.79,66.44,46.18,69.14,82.86-1.94,33.91,2.48,70.44-.05,104.03-2.72,36.2-34.46,56-60.53,76.47-12.12,9.51-29.55,24.18-42.15,31.85-14.98,9.12-25.3,6.41-36.82-5.79-17.38-18.41-34.23-41.5-50.97-61.03-19.21-22.41-41.53-45.5-59.48-68.52-14.58-18.69-13.46-34.82,1-52.94,11.24-14.09,24.77-27.66,36.49-41.51,21.65-25.59,43.07-53.78,65.97-78.03,5.77-6.11,13.67-15.37,22.26-16.74Z"/>
    <g>
      <path class="st0" d="M507.78,340.28c7.59-.88,13.37,0,20.26,3.18,36.4,24.21,78.74,43.06,114.88,67.12,11.71,7.79,18.94,15.01,20.11,29.89,3.34,42.44-2.6,89.17,0,132.07-1.36,15.74-9.94,23.71-22.36,31.64-36.33,23.2-77.5,41.69-113.99,65.01-13.54,5.8-22.52,2.43-34.7-3.66-40.52-20.24-81.33-47.62-120.47-70.53-5.04-5.89-8.99-12.5-9.54-20.46,2.67-43.86-3.44-91.69,0-135.07,1.42-17.87,11.05-23.7,24.74-32.26,36.7-22.96,76.57-42.96,113.75-65.25,2.35-.57,4.95-1.39,7.33-1.67Z"/>
      <path class="st0" d="M832.74,339.24c10.58-1.79,20.59.6,27.77,8.75,22.94,28.01,46.16,55.82,69.51,83.49,12.9,15.28,29.22,31.35,40.96,47.04,12.27,16.4,12.33,32.57,0,48.95-13.97,18.55-33.15,37.47-48.49,55.51-22.06,25.95-43.76,52.21-65.95,78.05-12.32,10.83-23.52,8.09-36.26.19-20.53-12.74-75.38-54.22-88.09-72.91-18.38-27.03-12.59-89.91-11.14-122.77.75-16.99-1.14-26.44,7.79-42.21,8.75-15.44,36.12-35.74,50.7-47.3,9.61-7.62,43.46-35.14,53.21-36.79Z"/>
      <g>
        <path class="st0" d="M728.78,102.28c12.18-2.36,21.44,4.39,26.42,15.03l56.13,153.88c2.47,10.5-.27,19.4-8.4,26.23-18.38,15.42-48.72,32.5-70.24,43.76-30.45,15.93-41.59,22.7-75.03,7.69-23.67-10.63-82.32-42.42-97.06-61.94-9.32-12.35-11.67-33.39-14.27-48.73-2.67-15.76-10.07-56.5-8.05-70.43,3.22-22.2,35.19-25.79,53.32-30.68,45.54-12.29,91.7-22.32,137.2-34.8Z"/>
        <path class="st0" d="M284.74,102.24c2.57-.43,5.17-.32,7.75-.22,55.71,16.73,117.39,25.48,172.27,43.72,16.6,5.52,21.96,14.24,21.23,31.75-.97,23.14-7.95,74.29-15.26,95.74-8.86,25.96-59.63,52.51-83.71,65.29-43.72,23.22-52.37,25.5-96.69,1.65-15.06-8.11-64.57-36.12-73.16-47.84-4.38-5.98-6.7-12.69-4.47-20.12,20.43-49.75,34.66-105.08,55.81-154.19,3.18-7.39,7.49-14.3,16.22-15.78Z"/>
      </g>
    </g>
    <g>
      <path class="st0" d="M803.65,711.35c6.18,6.01,10.07,16.01,7.9,24.69-17.88,48.84-32.02,101.23-51.8,149.2-8.1,19.64-14.06,24.02-35.76,20.27-54.61-9.46-110.77-31.4-165.43-42.57-14.65-5.04-21.12-15.06-20.6-30.49.45-13.31,3.2-31.34,5.18-44.81,2.87-19.51,6.8-53.2,18.88-68.12,13.88-17.15,76.96-51.55,98.96-62.04,32.83-15.66,54.88-1.03,83.69,15.35,14.45,8.22,48.02,27.86,58.97,38.53Z"/>
      <path class="st0" d="M218.36,713.36c5.06-5.34,19.88-14.27,26.73-18.77,19.51-12.81,69.53-44.5,91.42-44.67,12.41-.1,24.78,7.07,35.52,12.57,14.97,7.66,31.14,16.79,45.65,25.35,21.88,12.9,47.97,25.84,54.67,52.33,5.64,22.29,9.05,50.43,11.53,73.47,3.87,35.85,3.89,42.81-31.66,53.09-45.59,13.19-101.86,29.11-148.03,37.97-21.82,4.19-29.66,4.13-38.94-17.44-21.13-49.12-35.36-104.63-54.17-154.88-.52-6.33,2.94-14.44,7.27-19.01Z"/>
    </g>
  </g>
</svg>
